<mxfile host="app.diagrams.net" agent="Mozilla/5.0 (Windows NT 10.0; Win64; x64) AppleWebKit/537.36 (KHTML, like Gecko) Chrome/130.0.0.0 Safari/537.36" version="25.0.3">
  <diagram name="Trang-1" id="jfOicE8PaIddwebQgmtz">
    <mxGraphModel grid="1" page="1" gridSize="10" guides="1" tooltips="1" connect="1" arrows="1" fold="1" pageScale="1" pageWidth="827" pageHeight="1169" math="0" shadow="0">
      <root>
        <mxCell id="0" />
        <mxCell id="1" parent="0" />
        <mxCell id="GvvFHOh28quDxuXBS3qn-3" value="" style="edgeStyle=orthogonalEdgeStyle;rounded=0;orthogonalLoop=1;jettySize=auto;html=1;" edge="1" parent="1" source="GvvFHOh28quDxuXBS3qn-1" target="GvvFHOh28quDxuXBS3qn-2">
          <mxGeometry relative="1" as="geometry" />
        </mxCell>
        <mxCell id="GvvFHOh28quDxuXBS3qn-1" value="start" style="ellipse;whiteSpace=wrap;html=1;" vertex="1" parent="1">
          <mxGeometry x="340" y="70" width="120" height="80" as="geometry" />
        </mxCell>
        <mxCell id="GvvFHOh28quDxuXBS3qn-37" value="" style="edgeStyle=orthogonalEdgeStyle;rounded=0;orthogonalLoop=1;jettySize=auto;html=1;" edge="1" parent="1" source="GvvFHOh28quDxuXBS3qn-2">
          <mxGeometry relative="1" as="geometry">
            <mxPoint x="400" y="390" as="targetPoint" />
          </mxGeometry>
        </mxCell>
        <mxCell id="GvvFHOh28quDxuXBS3qn-2" value="nhap a" style="rounded=1;whiteSpace=wrap;html=1;" vertex="1" parent="1">
          <mxGeometry x="340" y="240" width="120" height="60" as="geometry" />
        </mxCell>
        <mxCell id="GvvFHOh28quDxuXBS3qn-40" value="print so uoc" style="whiteSpace=wrap;html=1;rounded=1;" vertex="1" parent="1">
          <mxGeometry x="340" y="640" width="120" height="60" as="geometry" />
        </mxCell>
        <mxCell id="GvvFHOh28quDxuXBS3qn-45" value="" style="edgeStyle=orthogonalEdgeStyle;rounded=0;orthogonalLoop=1;jettySize=auto;html=1;" edge="1" parent="1" source="GvvFHOh28quDxuXBS3qn-42" target="GvvFHOh28quDxuXBS3qn-44">
          <mxGeometry relative="1" as="geometry" />
        </mxCell>
        <mxCell id="GvvFHOh28quDxuXBS3qn-42" value="i=1;i&amp;lt;=a;i++" style="shape=parallelogram;perimeter=parallelogramPerimeter;whiteSpace=wrap;html=1;fixedSize=1;" vertex="1" parent="1">
          <mxGeometry x="340" y="390" width="120" height="60" as="geometry" />
        </mxCell>
        <mxCell id="GvvFHOh28quDxuXBS3qn-43" value="for" style="text;html=1;align=center;verticalAlign=middle;resizable=0;points=[];autosize=1;strokeColor=none;fillColor=none;" vertex="1" parent="1">
          <mxGeometry x="390" y="348" width="40" height="30" as="geometry" />
        </mxCell>
        <mxCell id="GvvFHOh28quDxuXBS3qn-46" style="edgeStyle=orthogonalEdgeStyle;rounded=0;orthogonalLoop=1;jettySize=auto;html=1;entryX=0.5;entryY=0;entryDx=0;entryDy=0;" edge="1" parent="1" source="GvvFHOh28quDxuXBS3qn-44" target="GvvFHOh28quDxuXBS3qn-40">
          <mxGeometry relative="1" as="geometry" />
        </mxCell>
        <mxCell id="GvvFHOh28quDxuXBS3qn-44" value="a%i==0" style="rhombus;whiteSpace=wrap;html=1;" vertex="1" parent="1">
          <mxGeometry x="360" y="504.5" width="80" height="80" as="geometry" />
        </mxCell>
        <mxCell id="GvvFHOh28quDxuXBS3qn-47" value="náº¿u" style="text;html=1;align=center;verticalAlign=middle;resizable=0;points=[];autosize=1;strokeColor=none;fillColor=none;" vertex="1" parent="1">
          <mxGeometry x="390" y="468" width="40" height="30" as="geometry" />
        </mxCell>
      </root>
    </mxGraphModel>
  </diagram>
</mxfile>
